<svg width="12258" height="3100" viewBox="0 0 12258 3100" fill="none" xmlns="http://www.w3.org/2000/svg">
<path fill-rule="evenodd" clip-rule="evenodd" d="M3100 3000H3100V2400V600V0H2500H700H100L700 600H2500V2400L3100 3000L3100 3000Z" fill="white"/>
<path fill-rule="evenodd" clip-rule="evenodd" d="M0.00244141 100H0V700V2500V3100H600H2400H3000L2400 2500H600V700L0.000976562 100.001L0.00244141 100Z" fill="white"/>
<path fill-rule="evenodd" clip-rule="evenodd" d="M4038.74 510.75L4437.74 1190.25H4613.24V156.75H4421.24V828.75L4026.74 156.75H3848.24V1190.25H4038.74V510.75ZM9252.29 425.25L9393.29 302.25C9295.29 197.25 9170.29 144.75 9018.29 144.75C8871.29 144.75 8746.79 196.75 8644.79 300.75C8542.79 403.75 8491.79 528.75 8491.79 675.75C8491.79 821.75 8542.79 946.75 8644.79 1050.75C8746.79 1153.75 8871.29 1205.25 9018.29 1205.25C9172.29 1205.25 9293.79 1159.75 9382.79 1068.75C9472.79 976.75 9517.79 839.25 9517.79 656.25H9013.79V813.75H9297.29C9295.29 876.75 9266.29 928.25 9210.29 968.25C9155.29 1008.25 9091.29 1028.25 9018.29 1028.25C8924.29 1028.25 8844.79 993.75 8779.79 924.75C8715.79 855.75 8683.79 772.75 8683.79 675.75C8683.79 578.75 8715.79 496.25 8779.79 428.25C8844.79 359.25 8924.29 324.75 9018.29 324.75C9109.29 324.75 9187.29 358.25 9252.29 425.25ZM10737.5 510.75L11136.5 1190.25H11312V156.75H11120V828.75L10725.5 156.75H10547V1190.25H10737.5V510.75ZM3400 156.75V1190.25H3590.5V156.75H3400ZM4783.7 156.75V332.25H5074.7V1190.25H5268.2V332.25H5559.2V156.75H4783.7ZM5730.57 156.75V1190.25H6384.57V1019.25H5921.07V765.75H6314.07V596.25H5921.07V327.75H6369.57V156.75H5730.57ZM6588.96 156.75V1190.25H7179.96V1019.25H6780.96V156.75H6588.96ZM7347.75 156.75V1190.25H7938.75V1019.25H7539.75V156.75H7347.75ZM8106.54 156.75V1190.25H8297.04V156.75H8106.54ZM9688.57 156.75V1190.25H10342.6V1019.25H9879.07V765.75H10272.1V596.25H9879.07V327.75H10327.6V156.75H9688.57ZM11482.4 156.75V332.25H11773.4V1190.25H11966.9V332.25H12257.9V156.75H11482.4Z" fill="white"/>
<path fill-rule="evenodd" clip-rule="evenodd" d="M3450 1605.25H6480V2905.25H3450V1605.25ZM3400 1555.25H3450H6480H6530V1605.25V2905.25V2955.25H6480H3450H3400V2905.25V1605.25V1555.25ZM3730 2722.25H4066.7C4189.77 2722.25 4286.4 2680.65 4356.6 2597.45C4427.67 2514.25 4463.2 2407.22 4463.2 2276.35C4463.2 2144.62 4427.67 2036.72 4356.6 1952.65C4286.4 1868.58 4189.77 1826.55 4066.7 1826.55H3730V2722.25ZM3815.8 2636.45V1912.35H4066.7C4166.37 1912.35 4243.07 1946.15 4296.8 2013.75C4350.53 2081.35 4377.4 2168.88 4377.4 2276.35C4377.4 2383.82 4350.53 2470.92 4296.8 2537.65C4243.07 2603.52 4166.37 2636.45 4066.7 2636.45H3815.8ZM4753.98 2722.25V1826.55H4668.18V2722.25H4753.98ZM5241 2581.85L5016.1 1826.55H4927.7L5196.8 2722.25H5286.5L5554.3 1826.55H5465.9L5241 2581.85ZM6240.41 1826.55H5729.51V2722.25H6254.71V2636.45H5815.31V2325.75H6187.11V2239.95H5815.31V1912.35H6240.41V1826.55Z" fill="white"/>
</svg>
